<svg width="40.000000" height="40.000000" viewBox="0 0 40 40" fill="none" xmlns="http://www.w3.org/2000/svg" xmlns:xlink="http://www.w3.org/1999/xlink">
	<desc>
			Created with Pixso.
	</desc>
	<defs/>
	<path id="Combined Shape" d="M20 0C8.95435 0 0 8.95435 0 20C0 31.0457 8.95435 40 20 40C31.0457 40 40 31.0457 40 20C40 8.95435 31.0457 0 20 0ZM17.707 20.9492L17.707 29L21.0117 29L21.0117 20.9492L23.5781 20.9492L24 17.75L21.0117 17.75L21.0117 15.5352C21.0117 15.0195 21.1055 14.6445 21.293 14.4102C21.5273 14.1289 21.9609 13.9883 22.5938 13.9883L24.2812 13.9883L24.2812 11.1406C23.6484 11.0469 22.8281 11 21.8203 11C20.8557 11 20.0395 11.2226 19.3716 11.6677C19.1794 11.7958 18.9996 11.9424 18.832 12.1074C18.7332 12.2047 18.6408 12.3073 18.5549 12.415C17.9897 13.1244 17.707 14.0589 17.707 15.2188L17.707 17.75L15 17.75L15 20.9492L17.707 20.9492Z" clip-rule="evenodd" fill="#FFFFFF" fill-opacity="1.000000" fill-rule="evenodd"/>
</svg>
