<svg width="83.000000" height="33.000000" viewBox="0 0 83 33" fill="none" xmlns="http://www.w3.org/2000/svg" xmlns:xlink="http://www.w3.org/1999/xlink">
	<desc>
			Created with Pixso.
	</desc>
	<defs/>
	<mask id="mask1_239" mask-type="alpha" maskUnits="userSpaceOnUse" x="30.265137" y="-0.534912" width="28.010239" height="32.274414">
		<path id="Clip 2" d="M30.26 -0.54L58.27 -0.54L58.27 31.73L30.26 31.73L30.26 -0.54Z" fill="#C4C4C4" fill-opacity="1.000000" fill-rule="nonzero"/>
	</mask>
	<g mask="url(#mask1_239)">
		<path id="Fill 1" d="M56.25 6.02L56.25 25.5C56.25 29.26 55.89 30.31 58.27 30.96L58.27 31.73L48.74 31.73L48.74 30.96C49.97 30.5 49.84 29.26 49.84 25.5L49.84 16.74L38.74 16.74L38.74 25.5C38.74 29.26 38.56 30.5 39.84 30.96L39.84 31.73L30.26 31.73L30.26 30.96C32.69 30.31 32.32 29.26 32.32 25.5L32.32 6.02C32.32 2.49 32.46 0.65 30.26 0.24L30.26 -0.54L39.84 -0.54L39.84 0.24C38.56 0.65 38.74 2.49 38.74 6.02L38.74 15.83L49.84 15.83L49.84 6.02C49.84 2.49 50.02 0.65 48.74 0.24L48.74 -0.54L58.27 -0.54L58.27 0.24C56.12 0.65 56.25 2.49 56.25 6.02Z" fill="#FFFFFF" fill-opacity="1.000000" fill-rule="nonzero"/>
	</g>
	<path id="Fill 4" d="M82.92 30.95L82.92 31.73L75.68 31.73C70.82 31.73 69.72 30.4 64.91 23.44C62.25 19.68 60.28 17.06 60.28 17.06L66.6 9.41C66.6 9.41 74.49 0.42 66.33 0.24L66.33 -0.54L81.46 -0.54L81.46 0.24C78.39 0.24 75.18 0.33 65.27 13.03C76 27.38 76.46 27.98 76.46 27.98C78.71 30.95 81.69 30.95 82.92 30.95Z" fill="#FFFFFF" fill-opacity="1.000000" fill-rule="nonzero"/>
	<path id="Fill 6" d="M7.07 20.19C7.07 20.16 6.99 17.86 6.96 17.1C6.96 16.97 6.85 16.86 6.71 16.86C6.58 16.86 6.47 16.96 6.46 17.1C6.42 17.85 6.29 20.16 6.29 20.19C6.28 21.03 6 30.95 -0.58 30.95L-0.58 31.73L13.31 31.73L13.31 30.95C7.24 30.95 7.08 21 7.07 20.19Z" fill="#FFFFFF" fill-opacity="1.000000" fill-rule="nonzero"/>
	<mask id="mask1_243" mask-type="alpha" maskUnits="userSpaceOnUse" x="1.119324" y="-0.534912" width="26.720383" height="32.686768">
		<path id="Clip 9" d="M1.11 -0.54L27.83 -0.54L27.83 32.15L1.11 32.15L1.11 -0.54Z" fill="#C4C4C4" fill-opacity="1.000000" fill-rule="nonzero"/>
	</mask>
	<g mask="url(#mask1_243)">
		<path id="Fill 8" d="M27.7 14.24C27.6 14.19 27.47 14.24 27.43 14.35L25.86 17.39C24.51 20.03 23.09 21.14 21.53 18.11L12.67 -0.54L1.11 -0.54L1.11 0.24C2.26 0.33 4.55 0.33 6.29 3.4L19.91 32.15L20.69 32.15L21.42 30.32L27.82 14.51C27.86 14.4 27.81 14.28 27.7 14.24Z" fill="#FFFFFF" fill-opacity="1.000000" fill-rule="nonzero"/>
	</g>
</svg>
